STARTFONT 2.1
FONT -Sony-FixedMOD0-Medium-R-Normal--16-120-100-100-P-71-ISO10646-1
SIZE 12 100 100
FONTBOUNDINGBOX 8 16 0 -2
COMMENT "Generated by fontforge, http://fontforge.sourceforge.net"
COMMENT "Copyright (c) 1987, 1988 Sony Corp."
STARTPROPERTIES 33
FOUNDRY "Sony"
FAMILY_NAME "FixedMOD0"
WEIGHT_NAME "Medium"
SLANT "R"
SETWIDTH_NAME "Normal"
ADD_STYLE_NAME ""
PIXEL_SIZE 16
POINT_SIZE 120
RESOLUTION_X 100
RESOLUTION_Y 100
SPACING "P"
AVERAGE_WIDTH 71
CHARSET_REGISTRY "ISO10646"
CHARSET_ENCODING "1"
FONTNAME_REGISTRY ""
CHARSET_COLLECTIONS "ISO10646-1"
FONT_NAME "FixedMOD0Medium"
FACE_NAME "FixedMOD0-Medium"
COPYRIGHT "Copyright (c) 1987, 1988 Sony Corp."
FONT_VERSION "001.000"
FONT_ASCENT 14
FONT_DESCENT 2
UNDERLINE_POSITION 0
UNDERLINE_THICKNESS 0
X_HEIGHT 8
CAP_HEIGHT 12
RAW_ASCENT 875
RAW_DESCENT 125
RELATIVE_WEIGHT 50
RELATIVE_SETWIDTH 50
FIGURE_WIDTH 8
AVG_LOWERCASE_WIDTH 80
AVG_UPPERCASE_WIDTH 80
ENDPROPERTIES
CHARS 226
STARTCHAR exclam
ENCODING 33
SWIDTH 62500 0
DWIDTH 8 0
BBX 3 15 2 -2
BITMAP
E0
E0
E0
E0
E0
E0
40
40
40
40
00
00
40
E0
3F
ENDCHAR
STARTCHAR quotedbl
ENCODING 34
SWIDTH 62500 0
DWIDTH 8 0
BBX 5 5 1 9
BITMAP
D8
D8
48
48
90
ENDCHAR
STARTCHAR numbersign
ENCODING 35
SWIDTH 62500 0
DWIDTH 8 0
BBX 8 14 0 -1
BITMAP
12
12
12
7F
24
24
24
24
24
FE
48
48
48
48
ENDCHAR
STARTCHAR dollar
ENCODING 36
SWIDTH 62500 0
DWIDTH 8 0
BBX 7 16 0 -2
BITMAP
10
38
54
92
96
90
50
38
14
12
D2
92
94
78
10
10
ENDCHAR
STARTCHAR percent
ENCODING 37
SWIDTH 62500 0
DWIDTH 8 0
BBX 7 16 0 -2
BITMAP
02
62
94
94
94
98
68
10
10
2C
32
52
52
52
8C
80
ENDCHAR
STARTCHAR ampersand
ENCODING 38
SWIDTH 62500 0
DWIDTH 8 0
BBX 7 13 0 0
BITMAP
30
48
48
48
50
20
2E
54
54
94
88
8C
72
ENDCHAR
STARTCHAR quotesingle
ENCODING 39
SWIDTH 62500 0
DWIDTH 8 0
BBX 3 5 0 9
BITMAP
E0
E0
20
20
C0
ENDCHAR
STARTCHAR parenleft
ENCODING 40
SWIDTH 62500 0
DWIDTH 8 0
BBX 4 16 3 -2
BITMAP
10
20
40
40
80
80
80
80
80
80
80
80
40
40
20
10
ENDCHAR
STARTCHAR parenright
ENCODING 41
SWIDTH 62500 0
DWIDTH 8 0
BBX 4 16 0 -2
BITMAP
80
40
20
20
10
10
10
10
10
10
10
10
20
20
40
80
ENDCHAR
STARTCHAR asterisk
ENCODING 42
SWIDTH 62500 0
DWIDTH 8 0
BBX 7 9 0 2
BITMAP
10
38
92
D6
38
D6
92
38
10
ENDCHAR
STARTCHAR plus
ENCODING 43
SWIDTH 62500 0
DWIDTH 8 0
BBX 7 9 0 2
BITMAP
10
10
10
10
FE
10
10
10
10
ENDCHAR
STARTCHAR comma
ENCODING 44
SWIDTH 62500 0
DWIDTH 8 0
BBX 3 5 0 -2
BITMAP
E0
E0
20
20
C0
ENDCHAR
STARTCHAR hyphen
ENCODING 45
SWIDTH 62500 0
DWIDTH 8 0
BBX 6 1 1 6
BITMAP
FC
ENDCHAR
STARTCHAR period
ENCODING 46
SWIDTH 62500 0
DWIDTH 8 0
BBX 3 4 0 -1
BITMAP
40
E0
E0
40
ENDCHAR
STARTCHAR slash
ENCODING 47
SWIDTH 62500 0
DWIDTH 8 0
BBX 7 16 0 -2
BITMAP
02
02
04
04
08
08
08
10
10
10
20
20
40
40
80
80
ENDCHAR
STARTCHAR zero
ENCODING 48
SWIDTH 1000 0
DWIDTH 8 0
BBX 6 13 1 0
BITMAP
30
48
48
84
8C
98
B4
64
C4
84
48
48
30
ENDCHAR
STARTCHAR one
ENCODING 49
SWIDTH 62500 0
DWIDTH 8 0
BBX 5 13 1 0
BITMAP
20
E0
20
20
20
20
20
20
20
20
20
20
F8
ENDCHAR
STARTCHAR two
ENCODING 50
SWIDTH 62500 0
DWIDTH 8 0
BBX 6 13 1 0
BITMAP
30
48
84
C4
04
08
10
10
20
40
44
84
FC
ENDCHAR
STARTCHAR three
ENCODING 51
SWIDTH 62500 0
DWIDTH 8 0
BBX 7 13 0 0
BITMAP
38
44
82
82
02
04
38
04
02
82
82
44
38
ENDCHAR
STARTCHAR four
ENCODING 52
SWIDTH 62500 0
DWIDTH 8 0
BBX 7 13 0 0
BITMAP
08
18
28
28
48
48
88
88
FE
08
08
08
3C
ENDCHAR
STARTCHAR five
ENCODING 53
SWIDTH 62500 0
DWIDTH 8 0
BBX 7 13 0 0
BITMAP
FC
80
80
80
B8
C4
82
02
02
C2
82
44
38
ENDCHAR
STARTCHAR six
ENCODING 54
SWIDTH 62500 0
DWIDTH 8 0
BBX 7 13 0 0
BITMAP
3C
42
46
80
80
B8
C4
82
82
82
82
44
38
ENDCHAR
STARTCHAR seven
ENCODING 55
SWIDTH 62500 0
DWIDTH 8 0
BBX 7 13 0 0
BITMAP
FE
82
82
04
04
04
08
3E
08
08
10
10
10
ENDCHAR
STARTCHAR eight
ENCODING 56
SWIDTH 62500 0
DWIDTH 8 0
BBX 7 13 0 0
BITMAP
38
44
82
82
82
44
38
44
82
82
82
44
38
ENDCHAR
STARTCHAR nine
ENCODING 57
SWIDTH 62500 0
DWIDTH 8 0
BBX 7 13 0 0
BITMAP
38
44
82
82
82
82
46
3A
02
02
82
44
38
ENDCHAR
STARTCHAR colon
ENCODING 58
SWIDTH 62500 0
DWIDTH 8 0
BBX 3 9 2 0
BITMAP
E0
E0
00
00
00
00
00
E0
E0
ENDCHAR
STARTCHAR semicolon
ENCODING 59
SWIDTH 62500 0
DWIDTH 8 0
BBX 3 11 2 -2
BITMAP
E0
E0
00
00
00
00
E0
E0
60
40
C0
ENDCHAR
STARTCHAR less
ENCODING 60
SWIDTH 62500 0
DWIDTH 8 0
BBX 5 16 2 -2
BITMAP
08
10
10
20
20
40
40
80
80
40
40
20
20
10
10
08
ENDCHAR
STARTCHAR equal
ENCODING 61
SWIDTH 62500 0
DWIDTH 8 0
BBX 7 5 0 4
BITMAP
FE
00
00
00
FE
ENDCHAR
STARTCHAR greater
ENCODING 62
SWIDTH 62500 0
DWIDTH 8 0
BBX 5 16 0 -2
BITMAP
80
40
40
20
20
10
10
08
08
10
10
20
20
40
40
80
ENDCHAR
STARTCHAR question
ENCODING 63
SWIDTH 62500 0
DWIDTH 8 0
BBX 7 15 0 -2
BITMAP
38
44
82
C2
02
04
04
08
10
10
00
00
10
38
10
ENDCHAR
STARTCHAR at
ENCODING 64
SWIDTH 62500 0
DWIDTH 8 0
BBX 7 13 0 0
BITMAP
3C
42
82
9A
A6
A2
A2
A2
A6
9A
80
42
3C
ENDCHAR
STARTCHAR A
ENCODING 65
SWIDTH 500 0
DWIDTH 8 0
BBX 7 13 0 0
BITMAP
10
28
28
28
44
44
44
44
7C
82
82
82
C6
ENDCHAR
STARTCHAR B
ENCODING 66
SWIDTH 62500 0
DWIDTH 8 0
BBX 7 13 0 0
BITMAP
F8
44
42
42
42
44
78
44
42
42
42
42
FC
ENDCHAR
STARTCHAR C
ENCODING 67
SWIDTH 62500 0
DWIDTH 8 0
BBX 7 13 0 0
BITMAP
3A
46
42
80
80
80
80
80
80
82
42
42
3C
ENDCHAR
STARTCHAR D
ENCODING 68
SWIDTH 62500 0
DWIDTH 8 0
BBX 7 13 0 0
BITMAP
F8
44
44
42
42
42
42
42
42
42
44
44
F8
ENDCHAR
STARTCHAR E
ENCODING 69
SWIDTH 62500 0
DWIDTH 8 0
BBX 7 13 0 0
BITMAP
FE
42
42
40
48
48
78
48
48
42
42
42
FE
ENDCHAR
STARTCHAR F
ENCODING 70
SWIDTH 62500 0
DWIDTH 8 0
BBX 7 13 0 0
BITMAP
FE
42
42
40
48
48
78
48
48
40
40
40
F0
ENDCHAR
STARTCHAR G
ENCODING 71
SWIDTH 62500 0
DWIDTH 8 0
BBX 8 13 0 0
BITMAP
1A
26
42
40
80
80
8F
82
82
82
42
66
1A
ENDCHAR
STARTCHAR H
ENCODING 72
SWIDTH 62500 0
DWIDTH 8 0
BBX 8 13 0 0
BITMAP
E7
42
42
42
42
7E
42
42
42
42
42
42
E7
ENDCHAR
STARTCHAR I
ENCODING 73
SWIDTH 62500 0
DWIDTH 8 0
BBX 7 13 0 0
BITMAP
FE
10
10
10
10
10
10
10
10
10
10
10
FE
ENDCHAR
STARTCHAR J
ENCODING 74
SWIDTH 62500 0
DWIDTH 8 0
BBX 8 13 0 0
BITMAP
1F
02
02
02
02
02
02
02
82
82
82
44
38
ENDCHAR
STARTCHAR K
ENCODING 75
SWIDTH 62500 0
DWIDTH 8 0
BBX 8 13 0 0
BITMAP
E6
44
44
48
48
70
50
48
48
44
44
42
E3
ENDCHAR
STARTCHAR L
ENCODING 76
SWIDTH 62500 0
DWIDTH 8 0
BBX 7 13 0 0
BITMAP
F0
40
40
40
40
40
40
40
40
42
42
42
FE
ENDCHAR
STARTCHAR M
ENCODING 77
SWIDTH 62500 0
DWIDTH 8 0
BBX 7 13 0 0
BITMAP
82
C6
AA
AA
AA
92
92
92
82
82
82
82
C6
ENDCHAR
STARTCHAR N
ENCODING 78
SWIDTH 62500 0
DWIDTH 8 0
BBX 8 13 0 0
BITMAP
E7
42
62
62
52
52
5A
4A
4A
46
46
42
E7
ENDCHAR
STARTCHAR O
ENCODING 79
SWIDTH 62500 0
DWIDTH 8 0
BBX 7 13 0 0
BITMAP
38
44
82
82
82
82
82
82
82
82
82
44
38
ENDCHAR
STARTCHAR P
ENCODING 80
SWIDTH 62500 0
DWIDTH 8 0
BBX 7 13 0 0
BITMAP
F8
44
42
42
42
42
44
78
40
40
40
40
F0
ENDCHAR
STARTCHAR Q
ENCODING 81
SWIDTH 62500 0
DWIDTH 8 0
BBX 7 15 0 -2
BITMAP
38
44
44
82
82
82
82
82
82
BA
44
44
38
08
06
ENDCHAR
STARTCHAR R
ENCODING 82
SWIDTH 62500 0
DWIDTH 8 0
BBX 8 13 0 0
BITMAP
F8
44
42
42
42
44
78
48
44
44
44
42
E3
ENDCHAR
STARTCHAR S
ENCODING 83
SWIDTH 62500 0
DWIDTH 8 0
BBX 7 13 0 0
BITMAP
34
4C
84
80
80
60
18
04
82
82
82
C4
B8
ENDCHAR
STARTCHAR T
ENCODING 84
SWIDTH 62500 0
DWIDTH 8 0
BBX 7 13 0 0
BITMAP
FE
92
92
10
10
10
10
10
10
10
10
10
7C
ENDCHAR
STARTCHAR U
ENCODING 85
SWIDTH 62500 0
DWIDTH 8 0
BBX 8 13 0 0
BITMAP
E7
42
42
42
42
42
42
42
42
42
42
42
3C
ENDCHAR
STARTCHAR V
ENCODING 86
SWIDTH 62500 0
DWIDTH 8 0
BBX 7 13 0 0
BITMAP
C6
82
82
82
82
44
44
44
44
28
28
10
10
ENDCHAR
STARTCHAR W
ENCODING 87
SWIDTH 62500 0
DWIDTH 8 0
BBX 7 13 0 0
BITMAP
C6
82
82
82
92
92
92
AA
AA
AA
44
44
44
ENDCHAR
STARTCHAR X
ENCODING 88
SWIDTH 62500 0
DWIDTH 8 0
BBX 7 13 0 0
BITMAP
EE
44
44
28
28
10
28
28
28
44
44
82
C6
ENDCHAR
STARTCHAR Y
ENCODING 89
SWIDTH 62500 0
DWIDTH 8 0
BBX 7 13 0 0
BITMAP
C6
82
44
44
44
28
28
10
10
10
10
10
7C
ENDCHAR
STARTCHAR Z
ENCODING 90
SWIDTH 62500 0
DWIDTH 8 0
BBX 7 13 0 0
BITMAP
FE
84
88
08
10
10
10
20
20
42
42
82
FE
ENDCHAR
STARTCHAR bracketleft
ENCODING 91
SWIDTH 62500 0
DWIDTH 8 0
BBX 4 16 3 -2
BITMAP
F0
80
80
80
80
80
80
80
80
80
80
80
80
80
80
F0
ENDCHAR
STARTCHAR backslash
ENCODING 92
SWIDTH 62500 0
DWIDTH 8 0
BBX 7 14 0 -1
BITMAP
80
80
40
40
20
20
10
10
08
08
04
04
02
02
ENDCHAR
STARTCHAR bracketright
ENCODING 93
SWIDTH 62500 0
DWIDTH 8 0
BBX 4 16 0 -2
BITMAP
F0
10
10
10
10
10
10
10
10
10
10
10
10
10
10
F0
ENDCHAR
STARTCHAR asciicircum
ENCODING 94
SWIDTH 62500 0
DWIDTH 8 0
BBX 7 4 0 10
BITMAP
10
28
44
82
ENDCHAR
STARTCHAR underscore
ENCODING 95
SWIDTH 62500 0
DWIDTH 8 0
BBX 7 1 0 -2
BITMAP
FE
ENDCHAR
STARTCHAR grave
ENCODING 96
SWIDTH 62500 0
DWIDTH 8 0
BBX 2 5 2 9
BITMAP
C0
C0
80
80
40
ENDCHAR
STARTCHAR a
ENCODING 97
SWIDTH 62500 0
DWIDTH 8 0
BBX 8 9 0 0
BITMAP
3C
42
02
3E
42
82
82
86
7B
ENDCHAR
STARTCHAR b
ENCODING 98
SWIDTH 62500 0
DWIDTH 8 0
BBX 7 13 0 0
BITMAP
C0
40
40
40
78
44
42
42
42
42
42
44
78
ENDCHAR
STARTCHAR c
ENCODING 99
SWIDTH 62500 0
DWIDTH 8 0
BBX 7 9 0 0
BITMAP
3A
46
82
80
80
80
82
42
3C
ENDCHAR
STARTCHAR d
ENCODING 100
SWIDTH 62500 0
DWIDTH 8 0
BBX 7 13 0 0
BITMAP
06
04
04
04
3C
44
84
84
84
84
84
44
3E
ENDCHAR
STARTCHAR e
ENCODING 101
SWIDTH 62500 0
DWIDTH 8 0
BBX 7 9 0 0
BITMAP
38
44
82
FE
80
80
82
42
3C
ENDCHAR
STARTCHAR f
ENCODING 102
SWIDTH 62500 0
DWIDTH 8 0
BBX 8 13 0 0
BITMAP
0E
11
10
10
FE
10
10
10
10
10
10
10
7C
ENDCHAR
STARTCHAR g
ENCODING 103
SWIDTH 62500 0
DWIDTH 8 0
BBX 8 11 0 -2
BITMAP
3B
44
44
44
38
40
78
84
82
82
7C
ENDCHAR
STARTCHAR h
ENCODING 104
SWIDTH 62500 0
DWIDTH 8 0
BBX 8 13 0 0
BITMAP
C0
40
40
40
5C
62
42
42
42
42
42
42
E7
ENDCHAR
STARTCHAR i
ENCODING 105
SWIDTH 62500 0
DWIDTH 8 0
BBX 8 14 0 0
BITMAP
18
18
00
00
00
78
08
08
08
08
08
08
08
FF
ENDCHAR
STARTCHAR j
ENCODING 106
SWIDTH 62500 0
DWIDTH 8 0
BBX 7 16 0 -2
BITMAP
06
06
00
00
00
3E
02
02
02
02
02
02
82
82
44
38
ENDCHAR
STARTCHAR k
ENCODING 107
SWIDTH 62500 0
DWIDTH 8 0
BBX 8 13 0 0
BITMAP
C0
40
40
40
42
44
48
58
64
44
42
42
E3
ENDCHAR
STARTCHAR l
ENCODING 108
SWIDTH 62500 0
DWIDTH 8 0
BBX 8 13 0 0
BITMAP
78
08
08
08
08
08
08
08
08
08
08
08
FF
ENDCHAR
STARTCHAR m
ENCODING 109
SWIDTH 62500 0
DWIDTH 8 0
BBX 8 9 0 0
BITMAP
6C
92
92
92
92
92
92
92
DB
ENDCHAR
STARTCHAR n
ENCODING 110
SWIDTH 62500 0
DWIDTH 8 0
BBX 8 9 0 0
BITMAP
DC
62
42
42
42
42
42
42
E7
ENDCHAR
STARTCHAR o
ENCODING 111
SWIDTH 62500 0
DWIDTH 8 0
BBX 7 9 0 0
BITMAP
38
44
82
82
82
82
82
44
38
ENDCHAR
STARTCHAR p
ENCODING 112
SWIDTH 62500 0
DWIDTH 8 0
BBX 7 11 0 -2
BITMAP
F8
44
42
42
42
42
44
78
40
40
F0
ENDCHAR
STARTCHAR q
ENCODING 113
SWIDTH 62500 0
DWIDTH 8 0
BBX 7 11 0 -2
BITMAP
3E
44
84
84
84
84
44
3C
04
04
1E
ENDCHAR
STARTCHAR r
ENCODING 114
SWIDTH 62500 0
DWIDTH 8 0
BBX 7 9 0 0
BITMAP
EC
32
22
20
20
20
20
20
FC
ENDCHAR
STARTCHAR s
ENCODING 115
SWIDTH 62500 0
DWIDTH 8 0
BBX 7 9 0 0
BITMAP
3A
46
42
40
3C
02
82
C2
BC
ENDCHAR
STARTCHAR t
ENCODING 116
SWIDTH 62500 0
DWIDTH 8 0
BBX 7 12 0 0
BITMAP
20
20
20
FC
20
20
20
20
20
22
22
1C
ENDCHAR
STARTCHAR u
ENCODING 117
SWIDTH 62500 0
DWIDTH 8 0
BBX 8 9 0 0
BITMAP
C6
42
42
42
42
42
42
46
39
ENDCHAR
STARTCHAR v
ENCODING 118
SWIDTH 62500 0
DWIDTH 8 0
BBX 7 9 0 0
BITMAP
C6
82
82
44
44
44
28
28
10
ENDCHAR
STARTCHAR w
ENCODING 119
SWIDTH 62500 0
DWIDTH 8 0
BBX 7 9 0 0
BITMAP
92
92
92
92
AA
AA
44
44
44
ENDCHAR
STARTCHAR x
ENCODING 120
SWIDTH 62500 0
DWIDTH 8 0
BBX 7 9 0 0
BITMAP
EE
44
28
28
10
28
28
44
EE
ENDCHAR
STARTCHAR y
ENCODING 121
SWIDTH 62500 0
DWIDTH 8 0
BBX 8 11 0 -2
BITMAP
E7
42
22
24
14
08
08
10
90
A0
40
ENDCHAR
STARTCHAR z
ENCODING 122
SWIDTH 62500 0
DWIDTH 8 0
BBX 7 9 0 0
BITMAP
7E
44
08
08
10
10
22
42
FE
ENDCHAR
STARTCHAR braceleft
ENCODING 123
SWIDTH 62500 0
DWIDTH 8 0
BBX 5 16 2 -2
BITMAP
18
20
20
20
20
20
40
80
40
20
20
20
20
20
20
18
ENDCHAR
STARTCHAR bar
ENCODING 124
SWIDTH 62500 0
DWIDTH 8 0
BBX 1 16 3 -2
BITMAP
80
80
80
80
80
80
80
80
80
80
80
80
80
80
80
80
ENDCHAR
STARTCHAR braceright
ENCODING 125
SWIDTH 62500 0
DWIDTH 8 0
BBX 5 16 0 -2
BITMAP
C0
20
20
20
20
20
10
08
10
20
20
20
20
20
20
C0
ENDCHAR
STARTCHAR asciitilde
ENCODING 126
SWIDTH 62500 0
DWIDTH 8 0
BBX 7 3 0 11
BITMAP
60
92
0C
ENDCHAR
STARTCHAR uni007F
ENCODING 127
SWIDTH 62500 0
DWIDTH 0 0
BBX 1 1 0 0
BITMAP
00
ENDCHAR
STARTCHAR uni0080
ENCODING 128
SWIDTH 62500 0
DWIDTH 0 0
BBX 1 1 0 0
BITMAP
00
ENDCHAR
STARTCHAR uni0081
ENCODING 129
SWIDTH 62500 0
DWIDTH 0 0
BBX 1 1 0 0
BITMAP
00
ENDCHAR
STARTCHAR uni0082
ENCODING 130
SWIDTH 62500 0
DWIDTH 0 0
BBX 1 1 0 0
BITMAP
00
ENDCHAR
STARTCHAR uni0083
ENCODING 131
SWIDTH 62500 0
DWIDTH 0 0
BBX 1 1 0 0
BITMAP
00
ENDCHAR
STARTCHAR uni0084
ENCODING 132
SWIDTH 62500 0
DWIDTH 0 0
BBX 1 1 0 0
BITMAP
00
ENDCHAR
STARTCHAR uni0085
ENCODING 133
SWIDTH 62500 0
DWIDTH 0 0
BBX 1 1 0 0
BITMAP
00
ENDCHAR
STARTCHAR uni0086
ENCODING 134
SWIDTH 62500 0
DWIDTH 0 0
BBX 1 1 0 0
BITMAP
00
ENDCHAR
STARTCHAR uni0087
ENCODING 135
SWIDTH 62500 0
DWIDTH 0 0
BBX 1 1 0 0
BITMAP
00
ENDCHAR
STARTCHAR uni0088
ENCODING 136
SWIDTH 62500 0
DWIDTH 0 0
BBX 1 1 0 0
BITMAP
00
ENDCHAR
STARTCHAR uni0089
ENCODING 137
SWIDTH 62500 0
DWIDTH 0 0
BBX 1 1 0 0
BITMAP
00
ENDCHAR
STARTCHAR uni008A
ENCODING 138
SWIDTH 62500 0
DWIDTH 0 0
BBX 1 1 0 0
BITMAP
00
ENDCHAR
STARTCHAR uni008B
ENCODING 139
SWIDTH 62500 0
DWIDTH 0 0
BBX 1 1 0 0
BITMAP
00
ENDCHAR
STARTCHAR uni008C
ENCODING 140
SWIDTH 62500 0
DWIDTH 0 0
BBX 1 1 0 0
BITMAP
00
ENDCHAR
STARTCHAR uni008D
ENCODING 141
SWIDTH 62500 0
DWIDTH 0 0
BBX 1 1 0 0
BITMAP
00
ENDCHAR
STARTCHAR uni008E
ENCODING 142
SWIDTH 62500 0
DWIDTH 0 0
BBX 1 1 0 0
BITMAP
00
ENDCHAR
STARTCHAR uni008F
ENCODING 143
SWIDTH 62500 0
DWIDTH 0 0
BBX 1 1 0 0
BITMAP
00
ENDCHAR
STARTCHAR uni0090
ENCODING 144
SWIDTH 62500 0
DWIDTH 0 0
BBX 1 1 0 0
BITMAP
00
ENDCHAR
STARTCHAR uni0091
ENCODING 145
SWIDTH 62500 0
DWIDTH 0 0
BBX 1 1 0 0
BITMAP
00
ENDCHAR
STARTCHAR uni0092
ENCODING 146
SWIDTH 62500 0
DWIDTH 0 0
BBX 1 1 0 0
BITMAP
00
ENDCHAR
STARTCHAR uni0093
ENCODING 147
SWIDTH 62500 0
DWIDTH 0 0
BBX 1 1 0 0
BITMAP
00
ENDCHAR
STARTCHAR uni0094
ENCODING 148
SWIDTH 62500 0
DWIDTH 0 0
BBX 1 1 0 0
BITMAP
00
ENDCHAR
STARTCHAR uni0095
ENCODING 149
SWIDTH 62500 0
DWIDTH 0 0
BBX 1 1 0 0
BITMAP
00
ENDCHAR
STARTCHAR uni0096
ENCODING 150
SWIDTH 62500 0
DWIDTH 0 0
BBX 1 1 0 0
BITMAP
00
ENDCHAR
STARTCHAR uni0097
ENCODING 151
SWIDTH 62500 0
DWIDTH 0 0
BBX 1 1 0 0
BITMAP
00
ENDCHAR
STARTCHAR uni0098
ENCODING 152
SWIDTH 62500 0
DWIDTH 0 0
BBX 1 1 0 0
BITMAP
00
ENDCHAR
STARTCHAR uni0099
ENCODING 153
SWIDTH 62500 0
DWIDTH 0 0
BBX 1 1 0 0
BITMAP
00
ENDCHAR
STARTCHAR exclamdown
ENCODING 161
SWIDTH 62500 0
DWIDTH 8 0
BBX 3 15 2 -2
BITMAP
40
E0
40
00
00
40
40
40
40
E0
E0
E0
E0
E0
E0
ENDCHAR
STARTCHAR cent
ENCODING 162
SWIDTH 62500 0
DWIDTH 8 0
BBX 7 13 0 -1
BITMAP
10
3C
52
92
90
90
90
90
90
92
52
3C
10
ENDCHAR
STARTCHAR sterling
ENCODING 163
SWIDTH 62500 0
DWIDTH 8 0
BBX 6 11 1 -1
BITMAP
18
24
20
20
20
F8
20
20
78
A4
40
ENDCHAR
STARTCHAR currency
ENCODING 164
SWIDTH 62500 0
DWIDTH 8 0
BBX 6 6 1 3
BITMAP
84
78
48
48
78
84
ENDCHAR
STARTCHAR yen
ENCODING 165
SWIDTH 62500 0
DWIDTH 8 0
BBX 7 14 0 0
BITMAP
82
82
44
44
FE
28
10
FE
10
10
10
10
10
38
ENDCHAR
STARTCHAR brokenbar
ENCODING 166
SWIDTH 62500 0
DWIDTH 8 0
BBX 1 13 3 0
BITMAP
80
80
80
80
80
00
00
00
80
80
80
80
80
ENDCHAR
STARTCHAR section
ENCODING 167
SWIDTH 62500 0
DWIDTH 8 0
BBX 6 13 1 0
BITMAP
78
84
80
40
78
84
84
84
78
08
04
84
78
ENDCHAR
STARTCHAR dieresis
ENCODING 168
SWIDTH 62500 0
DWIDTH 8 0
BBX 4 3 2 10
BITMAP
90
90
90
ENDCHAR
STARTCHAR copyright
ENCODING 169
SWIDTH 62500 0
DWIDTH 8 0
BBX 8 13 0 0
BITMAP
3C
42
99
A5
C3
C1
C1
C1
C3
A5
99
42
3C
ENDCHAR
STARTCHAR ordfeminine
ENCODING 170
SWIDTH 62500 0
DWIDTH 8 0
BBX 5 8 2 5
BITMAP
70
88
78
88
98
68
00
F8
ENDCHAR
STARTCHAR guillemotleft
ENCODING 171
SWIDTH 62500 0
DWIDTH 8 0
BBX 8 10 0 1
BITMAP
09
12
24
48
90
90
48
24
12
09
ENDCHAR
STARTCHAR logicalnot
ENCODING 172
SWIDTH 62500 0
DWIDTH 8 0
BBX 7 4 0 3
BITMAP
FE
FE
06
06
ENDCHAR
STARTCHAR uni00AD
ENCODING 173
SWIDTH 62500 0
DWIDTH 8 0
BBX 7 2 0 5
BITMAP
FE
FE
ENDCHAR
STARTCHAR registered
ENCODING 174
SWIDTH 62500 0
DWIDTH 8 0
BBX 8 13 0 0
BITMAP
3C
42
81
F9
C5
C5
F9
C5
C5
C5
81
42
3C
ENDCHAR
STARTCHAR macron
ENCODING 175
SWIDTH 62500 0
DWIDTH 8 0
BBX 7 1 0 11
BITMAP
FE
ENDCHAR
STARTCHAR degree
ENCODING 176
SWIDTH 62500 0
DWIDTH 8 0
BBX 5 5 1 8
BITMAP
70
88
88
88
70
ENDCHAR
STARTCHAR plusminus
ENCODING 177
SWIDTH 62500 0
DWIDTH 8 0
BBX 7 9 0 1
BITMAP
10
10
10
FE
10
10
10
00
FE
ENDCHAR
STARTCHAR uni00B2
ENCODING 178
SWIDTH 62500 0
DWIDTH 8 0
BBX 4 7 2 6
BITMAP
60
90
10
20
40
80
F0
ENDCHAR
STARTCHAR uni00B3
ENCODING 179
SWIDTH 62500 0
DWIDTH 8 0
BBX 4 7 2 6
BITMAP
60
90
10
60
10
90
60
ENDCHAR
STARTCHAR acute
ENCODING 180
SWIDTH 62500 0
DWIDTH 8 0
BBX 4 3 2 10
BITMAP
30
60
C0
ENDCHAR
STARTCHAR mu
ENCODING 181
SWIDTH 62500 0
DWIDTH 8 0
BBX 7 9 0 -2
BITMAP
22
22
22
44
44
6C
54
82
80
ENDCHAR
STARTCHAR paragraph
ENCODING 182
SWIDTH 62500 0
DWIDTH 8 0
BBX 8 13 0 0
BITMAP
7F
FA
FA
FA
FA
FA
7A
0A
0A
0A
0A
0A
1B
ENDCHAR
STARTCHAR periodcentered
ENCODING 183
SWIDTH 62500 0
DWIDTH 8 0
BBX 2 2 3 6
BITMAP
C0
C0
ENDCHAR
STARTCHAR cedilla
ENCODING 184
SWIDTH 62500 0
DWIDTH 8 0
BBX 3 3 3 -2
BITMAP
60
40
80
ENDCHAR
STARTCHAR uni00B9
ENCODING 185
SWIDTH 62500 0
DWIDTH 8 0
BBX 3 7 2 6
BITMAP
20
60
A0
20
20
20
20
ENDCHAR
STARTCHAR ordmasculine
ENCODING 186
SWIDTH 62500 0
DWIDTH 8 0
BBX 4 8 2 5
BITMAP
60
90
90
90
90
60
00
F0
ENDCHAR
STARTCHAR guillemotright
ENCODING 187
SWIDTH 62500 0
DWIDTH 8 0
BBX 8 10 0 0
BITMAP
90
48
24
12
09
09
12
24
48
90
ENDCHAR
STARTCHAR onequarter
ENCODING 188
SWIDTH 62500 0
DWIDTH 8 0
BBX 8 13 0 0
BITMAP
40
C0
40
40
41
46
08
32
C6
0A
12
1F
02
ENDCHAR
STARTCHAR onehalf
ENCODING 189
SWIDTH 62500 0
DWIDTH 8 0
BBX 8 13 0 0
BITMAP
40
C0
40
40
41
46
08
36
C9
01
06
08
0F
ENDCHAR
STARTCHAR threequarters
ENCODING 190
SWIDTH 62500 0
DWIDTH 8 0
BBX 8 13 0 0
BITMAP
60
90
10
60
11
96
68
32
C6
0A
12
1F
02
ENDCHAR
STARTCHAR questiondown
ENCODING 191
SWIDTH 62500 0
DWIDTH 8 0
BBX 7 15 1 -1
BITMAP
10
38
10
00
10
10
10
20
40
40
80
86
82
44
38
ENDCHAR
STARTCHAR Agrave
ENCODING 192
SWIDTH 62500 0
DWIDTH 8 0
BBX 7 14 0 0
BITMAP
30
10
08
10
28
28
44
44
44
7C
82
82
82
C6
ENDCHAR
STARTCHAR Aacute
ENCODING 193
SWIDTH 62500 0
DWIDTH 8 0
BBX 7 14 0 0
BITMAP
18
10
20
10
28
28
44
44
44
7C
82
82
82
C6
ENDCHAR
STARTCHAR Acircumflex
ENCODING 194
SWIDTH 62500 0
DWIDTH 8 0
BBX 7 14 0 0
BITMAP
10
28
44
10
28
28
44
44
44
7C
82
82
82
C6
ENDCHAR
STARTCHAR Atilde
ENCODING 195
SWIDTH 62500 0
DWIDTH 8 0
BBX 7 14 0 0
BITMAP
24
58
00
10
28
28
44
44
44
7C
82
82
82
C6
ENDCHAR
STARTCHAR Adieresis
ENCODING 196
SWIDTH 62500 0
DWIDTH 8 0
BBX 7 14 0 0
BITMAP
44
44
00
10
28
28
44
44
44
7C
82
82
82
C6
ENDCHAR
STARTCHAR Aring
ENCODING 197
SWIDTH 62500 0
DWIDTH 8 0
BBX 7 14 0 0
BITMAP
38
44
38
10
28
28
44
44
44
7C
82
82
82
C6
ENDCHAR
STARTCHAR AE
ENCODING 198
SWIDTH 62500 0
DWIDTH 8 0
BBX 8 12 0 0
BITMAP
1F
28
28
48
48
48
4E
F8
88
88
88
8F
ENDCHAR
STARTCHAR Ccedilla
ENCODING 199
SWIDTH 62500 0
DWIDTH 8 0
BBX 7 15 0 -2
BITMAP
3C
42
40
80
80
80
80
80
80
40
42
3C
08
08
10
ENDCHAR
STARTCHAR Egrave
ENCODING 200
SWIDTH 62500 0
DWIDTH 8 0
BBX 7 14 0 0
BITMAP
30
10
08
FE
42
42
40
48
78
48
40
42
42
FE
ENDCHAR
STARTCHAR Eacute
ENCODING 201
SWIDTH 62500 0
DWIDTH 8 0
BBX 7 14 0 0
BITMAP
18
10
20
FE
42
42
40
48
78
48
40
42
42
FE
ENDCHAR
STARTCHAR Ecircumflex
ENCODING 202
SWIDTH 62500 0
DWIDTH 8 0
BBX 7 14 0 0
BITMAP
30
48
00
FE
42
42
40
48
78
48
40
42
42
FE
ENDCHAR
STARTCHAR Edieresis
ENCODING 203
SWIDTH 62500 0
DWIDTH 8 0
BBX 7 14 0 0
BITMAP
44
44
00
FE
42
42
40
48
78
48
40
42
42
FE
ENDCHAR
STARTCHAR Igrave
ENCODING 204
SWIDTH 62500 0
DWIDTH 8 0
BBX 7 14 0 0
BITMAP
30
10
08
FE
10
10
10
10
10
10
10
10
10
FE
ENDCHAR
STARTCHAR Iacute
ENCODING 205
SWIDTH 62500 0
DWIDTH 8 0
BBX 7 14 0 0
BITMAP
18
10
20
FE
10
10
10
10
10
10
10
10
10
FE
ENDCHAR
STARTCHAR Icircumflex
ENCODING 206
SWIDTH 62500 0
DWIDTH 8 0
BBX 7 14 0 0
BITMAP
10
28
44
FE
10
10
10
10
10
10
10
10
10
FE
ENDCHAR
STARTCHAR Idieresis
ENCODING 207
SWIDTH 62500 0
DWIDTH 8 0
BBX 7 14 0 0
BITMAP
44
44
00
FE
10
10
10
10
10
10
10
10
10
FE
ENDCHAR
STARTCHAR Eth
ENCODING 208
SWIDTH 62500 0
DWIDTH 8 0
BBX 7 13 0 0
BITMAP
F8
44
44
42
42
42
F2
42
42
42
44
44
F8
ENDCHAR
STARTCHAR Ntilde
ENCODING 209
SWIDTH 62500 0
DWIDTH 8 0
BBX 8 14 0 0
BITMAP
24
58
00
87
C2
A2
A2
92
92
92
8A
8A
86
C2
ENDCHAR
STARTCHAR Ograve
ENCODING 210
SWIDTH 62500 0
DWIDTH 8 0
BBX 7 14 0 0
BITMAP
30
10
08
38
44
82
82
82
82
82
82
82
44
38
ENDCHAR
STARTCHAR Oacute
ENCODING 211
SWIDTH 62500 0
DWIDTH 8 0
BBX 7 14 0 0
BITMAP
18
10
20
38
44
82
82
82
82
82
82
82
44
38
ENDCHAR
STARTCHAR Ocircumflex
ENCODING 212
SWIDTH 62500 0
DWIDTH 8 0
BBX 7 14 0 0
BITMAP
38
44
00
38
44
82
82
82
82
82
82
82
44
38
ENDCHAR
STARTCHAR Otilde
ENCODING 213
SWIDTH 62500 0
DWIDTH 8 0
BBX 7 14 0 0
BITMAP
24
58
00
38
44
82
82
82
82
82
82
82
44
38
ENDCHAR
STARTCHAR Odieresis
ENCODING 214
SWIDTH 62500 0
DWIDTH 8 0
BBX 7 14 0 0
BITMAP
44
44
00
38
44
82
82
82
82
82
82
82
44
38
ENDCHAR
STARTCHAR multiply
ENCODING 215
SWIDTH 62500 0
DWIDTH 8 0
BBX 8 8 0 2
BITMAP
81
42
24
18
18
24
42
81
ENDCHAR
STARTCHAR Oslash
ENCODING 216
SWIDTH 62500 0
DWIDTH 8 0
BBX 7 16 0 -2
BITMAP
02
02
3C
44
86
8A
8A
92
92
A2
A2
C2
44
78
80
80
ENDCHAR
STARTCHAR Ugrave
ENCODING 217
SWIDTH 62500 0
DWIDTH 8 0
BBX 8 14 0 0
BITMAP
30
10
08
E7
42
42
42
42
42
42
42
42
42
3C
ENDCHAR
STARTCHAR Uacute
ENCODING 218
SWIDTH 62500 0
DWIDTH 8 0
BBX 8 14 0 0
BITMAP
0C
08
10
E7
42
42
42
42
42
42
42
42
42
3C
ENDCHAR
STARTCHAR Ucircumflex
ENCODING 219
SWIDTH 62500 0
DWIDTH 8 0
BBX 8 14 0 0
BITMAP
18
24
00
E7
42
42
42
42
42
42
42
42
42
3C
ENDCHAR
STARTCHAR Udieresis
ENCODING 220
SWIDTH 62500 0
DWIDTH 8 0
BBX 8 14 0 0
BITMAP
24
24
00
E7
42
42
42
42
42
42
42
42
42
3C
ENDCHAR
STARTCHAR Yacute
ENCODING 221
SWIDTH 62500 0
DWIDTH 8 0
BBX 7 14 0 0
BITMAP
0C
08
10
C6
82
44
44
28
28
10
10
10
10
7C
ENDCHAR
STARTCHAR Thorn
ENCODING 222
SWIDTH 62500 0
DWIDTH 8 0
BBX 7 14 0 0
BITMAP
E0
40
78
44
42
42
42
44
78
40
40
40
40
F0
ENDCHAR
STARTCHAR germandbls
ENCODING 223
SWIDTH 62500 0
DWIDTH 8 0
BBX 7 13 0 0
BITMAP
38
44
82
82
82
84
98
84
82
82
82
82
9C
ENDCHAR
STARTCHAR agrave
ENCODING 224
SWIDTH 62500 0
DWIDTH 8 0
BBX 8 13 0 0
BITMAP
30
10
08
00
3C
42
02
3E
42
82
82
86
7B
ENDCHAR
STARTCHAR aacute
ENCODING 225
SWIDTH 62500 0
DWIDTH 8 0
BBX 8 13 0 0
BITMAP
18
10
20
00
3C
42
02
3E
42
82
82
86
7B
ENDCHAR
STARTCHAR acircumflex
ENCODING 226
SWIDTH 62500 0
DWIDTH 8 0
BBX 8 13 0 0
BITMAP
18
24
42
00
3C
42
02
3E
42
82
82
86
7B
ENDCHAR
STARTCHAR atilde
ENCODING 227
SWIDTH 62500 0
DWIDTH 8 0
BBX 8 13 0 0
BITMAP
32
4C
00
00
3C
42
02
3E
42
82
82
86
7B
ENDCHAR
STARTCHAR adieresis
ENCODING 228
SWIDTH 62500 0
DWIDTH 8 0
BBX 8 12 0 0
BITMAP
24
24
00
3C
42
02
3E
42
82
82
86
7B
ENDCHAR
STARTCHAR aring
ENCODING 229
SWIDTH 62500 0
DWIDTH 8 0
BBX 8 13 0 0
BITMAP
18
24
18
00
3C
42
02
3E
42
82
82
86
7B
ENDCHAR
STARTCHAR ae
ENCODING 230
SWIDTH 62500 0
DWIDTH 8 0
BBX 7 9 0 0
BITMAP
6C
92
12
3E
50
90
92
92
6C
ENDCHAR
STARTCHAR ccedilla
ENCODING 231
SWIDTH 62500 0
DWIDTH 8 0
BBX 7 12 0 -2
BITMAP
3A
46
82
80
80
80
82
42
3C
10
10
20
ENDCHAR
STARTCHAR egrave
ENCODING 232
SWIDTH 62500 0
DWIDTH 8 0
BBX 7 13 0 0
BITMAP
30
10
08
00
38
44
82
FE
80
80
82
42
3C
ENDCHAR
STARTCHAR eacute
ENCODING 233
SWIDTH 62500 0
DWIDTH 8 0
BBX 7 13 0 0
BITMAP
18
10
20
00
38
44
82
FE
80
80
82
42
3C
ENDCHAR
STARTCHAR ecircumflex
ENCODING 234
SWIDTH 62500 0
DWIDTH 8 0
BBX 7 13 0 0
BITMAP
38
44
82
00
38
44
82
FE
80
80
82
42
3C
ENDCHAR
STARTCHAR edieresis
ENCODING 235
SWIDTH 62500 0
DWIDTH 8 0
BBX 7 13 0 0
BITMAP
44
44
00
00
38
44
82
FE
80
80
80
44
38
ENDCHAR
STARTCHAR igrave
ENCODING 236
SWIDTH 62500 0
DWIDTH 8 0
BBX 8 13 0 0
BITMAP
30
10
08
00
78
08
08
08
08
08
08
08
FF
ENDCHAR
STARTCHAR iacute
ENCODING 237
SWIDTH 62500 0
DWIDTH 8 0
BBX 8 13 0 0
BITMAP
18
10
20
00
78
08
08
08
08
08
08
08
FF
ENDCHAR
STARTCHAR icircumflex
ENCODING 238
SWIDTH 62500 0
DWIDTH 8 0
BBX 8 13 0 0
BITMAP
18
24
42
00
78
08
08
08
08
08
08
08
FF
ENDCHAR
STARTCHAR idieresis
ENCODING 239
SWIDTH 62500 0
DWIDTH 8 0
BBX 8 13 0 0
BITMAP
24
24
00
00
78
08
08
08
08
08
08
08
FF
ENDCHAR
STARTCHAR eth
ENCODING 240
SWIDTH 62500 0
DWIDTH 8 0
BBX 7 13 0 0
BITMAP
64
18
18
24
3C
42
82
82
82
82
82
42
3C
ENDCHAR
STARTCHAR ntilde
ENCODING 241
SWIDTH 62500 0
DWIDTH 8 0
BBX 8 13 0 0
BITMAP
32
4C
00
00
DC
62
42
42
42
42
42
42
E7
ENDCHAR
STARTCHAR ograve
ENCODING 242
SWIDTH 62500 0
DWIDTH 8 0
BBX 7 13 0 0
BITMAP
30
10
08
00
38
44
82
82
82
82
82
44
38
ENDCHAR
STARTCHAR oacute
ENCODING 243
SWIDTH 62500 0
DWIDTH 8 0
BBX 7 13 0 0
BITMAP
18
10
20
00
38
44
82
82
82
82
82
44
38
ENDCHAR
STARTCHAR ocircumflex
ENCODING 244
SWIDTH 62500 0
DWIDTH 8 0
BBX 7 13 0 0
BITMAP
10
28
44
00
38
44
82
82
82
82
82
44
38
ENDCHAR
STARTCHAR otilde
ENCODING 245
SWIDTH 62500 0
DWIDTH 8 0
BBX 7 13 0 0
BITMAP
32
4C
00
00
38
44
82
82
82
82
82
44
38
ENDCHAR
STARTCHAR odieresis
ENCODING 246
SWIDTH 62500 0
DWIDTH 8 0
BBX 7 13 0 0
BITMAP
44
44
00
00
38
44
82
82
82
82
82
44
38
ENDCHAR
STARTCHAR divide
ENCODING 247
SWIDTH 62500 0
DWIDTH 8 0
BBX 7 7 0 2
BITMAP
10
10
00
FE
00
10
10
ENDCHAR
STARTCHAR oslash
ENCODING 248
SWIDTH 62500 0
DWIDTH 8 0
BBX 7 9 0 0
BITMAP
3A
44
8A
8A
92
A2
A2
44
B8
ENDCHAR
STARTCHAR ugrave
ENCODING 249
SWIDTH 62500 0
DWIDTH 8 0
BBX 8 13 0 0
BITMAP
30
10
08
00
C6
42
42
42
42
42
42
46
39
ENDCHAR
STARTCHAR uacute
ENCODING 250
SWIDTH 62500 0
DWIDTH 8 0
BBX 8 13 0 0
BITMAP
18
10
20
00
C6
42
42
42
42
42
42
46
39
ENDCHAR
STARTCHAR ucircumflex
ENCODING 251
SWIDTH 62500 0
DWIDTH 8 0
BBX 8 13 0 0
BITMAP
10
28
44
00
C6
42
42
42
42
42
42
46
39
ENDCHAR
STARTCHAR udieresis
ENCODING 252
SWIDTH 62500 0
DWIDTH 8 0
BBX 8 13 0 0
BITMAP
24
24
00
00
C6
42
42
42
42
42
42
46
39
ENDCHAR
STARTCHAR yacute
ENCODING 253
SWIDTH 62500 0
DWIDTH 8 0
BBX 8 15 0 -2
BITMAP
0C
08
10
00
E7
42
22
24
14
08
08
10
90
A0
40
ENDCHAR
STARTCHAR thorn
ENCODING 254
SWIDTH 62500 0
DWIDTH 8 0
BBX 7 14 0 -2
BITMAP
C0
40
40
78
44
42
42
42
42
44
78
40
40
F0
ENDCHAR
STARTCHAR ydieresis
ENCODING 255
SWIDTH 62500 0
DWIDTH 8 0
BBX 8 15 0 -2
BITMAP
24
24
00
00
E7
42
22
24
14
08
08
10
90
A0
40
ENDCHAR
STARTCHAR endash
ENCODING 8211
SWIDTH 1000 0
DWIDTH 16 0
BBX 6 1 0 6
BITMAP
FC
ENDCHAR
STARTCHAR emdash
ENCODING 8212
SWIDTH 1000 0
DWIDTH 16 0
BBX 8 1 0 6
BITMAP
FF
ENDCHAR
STARTCHAR notequal
ENCODING 8800
SWIDTH 1000 0
DWIDTH 8 0
BBX 7 9 0 2
BITMAP
02
04
FE
08
10
20
FE
40
80
ENDCHAR
STARTCHAR lessequal
ENCODING 8804
SWIDTH 62500 0
DWIDTH 8 0
BBX 7 10 0 0
BITMAP
02
0C
30
C0
30
0C
02
00
00
FE
ENDCHAR
STARTCHAR greaterequal
ENCODING 8805
SWIDTH 62500 0
DWIDTH 8 0
BBX 7 10 0 0
BITMAP
80
60
18
06
18
60
80
00
00
FE
ENDCHAR
STARTCHAR uni2266
ENCODING 8806
SWIDTH 62500 0
DWIDTH 8 0
BBX 7 10 0 0
BITMAP
02
0C
30
C0
30
0C
02
FE
00
FE
ENDCHAR
STARTCHAR uni2267
ENCODING 8807
SWIDTH 62500 0
DWIDTH 8 0
BBX 7 10 0 0
BITMAP
80
60
18
06
18
60
80
FE
00
FE
ENDCHAR
STARTCHAR uni2626
ENCODING 9766
SWIDTH 62500 0
DWIDTH 8 0
BBX 7 14 0 0
BITMAP
10
38
10
FE
10
10
50
30
10
18
14
10
10
10
ENDCHAR
STARTCHAR uni271D
ENCODING 10013
SWIDTH 500 0
DWIDTH 8 0
BBX 8 14 0 0
BITMAP
18
18
18
FF
FF
18
18
18
18
18
18
18
18
18
ENDCHAR
STARTCHAR uni271E
ENCODING 10014
SWIDTH 500 0
DWIDTH 8 0
BBX 8 13 0 1
BITMAP
38
28
EE
83
EF
2F
2C
2C
2C
2C
2C
3C
1C
ENDCHAR
ENDFONT
